<svg xmlns="http://www.w3.org/2000/svg" xmlns:xlink="http://www.w3.org/1999/xlink" version="1.1" id="Capa_1" x="0px" y="0px" viewBox="0 0 60.697 60.697" style="enable-background:new 0 0 60.697 60.697;" xml:space="preserve">
<line style="fill:none;stroke:#38454F;stroke-width:2;stroke-linecap:round;stroke-miterlimit:10;" x1="30.697" y1="1.348" x2="30.697" y2="26.348"/>
<polygon style="fill:#DD352E;" points="43.697,7.348 31.697,7.348 31.697,1.348 43.697,1.348 39.697,4.348 "/>
<polygon style="fill:#ECC13F;" points="54.955,54.348 7,54.348 10.697,23.348 30.697,10.348 50.697,23.348 "/>
<g>
	<circle style="fill:#ED8A19;" cx="12.697" cy="41.348" r="1"/>
	<circle style="fill:#ED8A19;" cx="18.697" cy="41.348" r="1"/>
	<circle style="fill:#ED8A19;" cx="22.697" cy="41.348" r="1"/>
	<circle style="fill:#ED8A19;" cx="20.697" cy="43.348" r="1"/>
	<circle style="fill:#ED8A19;" cx="10.697" cy="43.348" r="1"/>
	<circle style="fill:#ED8A19;" cx="10.697" cy="47.348" r="1"/>
	<circle style="fill:#ED8A19;" cx="12.697" cy="45.348" r="1"/>
	<circle style="fill:#ED8A19;" cx="8.697" cy="49.348" r="1"/>
	<circle style="fill:#ED8A19;" cx="12.697" cy="49.348" r="1"/>
	<circle style="fill:#ED8A19;" cx="10.697" cy="51.348" r="1"/>
	<circle style="fill:#ED8A19;" cx="8.697" cy="53.348" r="1"/>
	<circle style="fill:#ED8A19;" cx="12.697" cy="53.348" r="1"/>
	<circle style="fill:#ED8A19;" cx="18.697" cy="45.348" r="1"/>
	<circle style="fill:#ED8A19;" cx="16.697" cy="43.348" r="1"/>
	<circle style="fill:#ED8A19;" cx="16.697" cy="47.348" r="1"/>
	<circle style="fill:#ED8A19;" cx="16.697" cy="51.348" r="1"/>
	<circle style="fill:#ED8A19;" cx="18.697" cy="49.348" r="1"/>
	<circle style="fill:#ED8A19;" cx="18.697" cy="53.348" r="1"/>
	<circle style="fill:#ED8A19;" cx="48.697" cy="41.348" r="1"/>
	<circle style="fill:#ED8A19;" cx="42.697" cy="41.348" r="1"/>
	<circle style="fill:#ED8A19;" cx="38.697" cy="41.348" r="1"/>
	<circle style="fill:#ED8A19;" cx="40.697" cy="43.348" r="1"/>
	<circle style="fill:#ED8A19;" cx="50.697" cy="43.348" r="1"/>
	<circle style="fill:#ED8A19;" cx="50.697" cy="47.348" r="1"/>
	<circle style="fill:#ED8A19;" cx="52.697" cy="45.348" r="1"/>
	<circle style="fill:#ED8A19;" cx="48.697" cy="45.348" r="1"/>
	<circle style="fill:#ED8A19;" cx="52.697" cy="49.348" r="1"/>
	<circle style="fill:#ED8A19;" cx="48.697" cy="49.348" r="1"/>
	<circle style="fill:#ED8A19;" cx="50.697" cy="51.348" r="1"/>
	<circle style="fill:#ED8A19;" cx="52.697" cy="53.348" r="1"/>
	<circle style="fill:#ED8A19;" cx="48.697" cy="53.348" r="1"/>
	<circle style="fill:#ED8A19;" cx="42.697" cy="45.348" r="1"/>
	<circle style="fill:#ED8A19;" cx="44.697" cy="43.348" r="1"/>
	<circle style="fill:#ED8A19;" cx="44.697" cy="47.348" r="1"/>
	<circle style="fill:#ED8A19;" cx="44.697" cy="51.348" r="1"/>
	<circle style="fill:#ED8A19;" cx="42.697" cy="49.348" r="1"/>
	<circle style="fill:#ED8A19;" cx="42.697" cy="53.348" r="1"/>
</g>
<path style="fill:#556080;" d="M40.697,54.348h-20v-7l9.592-16.307c0.183-0.311,0.633-0.311,0.816,0l9.592,16.307V54.348z"/>
<rect y="42.348" style="fill:#1081E0;stroke:#000000;stroke-width:2;stroke-miterlimit:10;" width="0" height="0"/>
<g>
	<polygon style="fill:#556080;" points="16.697,28.348 14.697,28.348 14.697,58.348 13.697,58.348 13.697,60.348 17.697,60.348    17.697,58.348 16.697,58.348  "/>
	<polygon style="fill:#556080;" points="46.697,58.348 46.697,28.348 44.697,28.348 44.697,58.348 43.697,58.348 43.697,60.348    47.697,60.348 47.697,58.348  "/>
</g>
<line style="fill:none;stroke:#556080;stroke-width:2;stroke-linecap:round;stroke-miterlimit:10;" x1="10.697" y1="23.348" x2="1.697" y2="54.348"/>
<line style="fill:none;stroke:#556080;stroke-width:2;stroke-linecap:round;stroke-miterlimit:10;" x1="50.697" y1="23.348" x2="59.697" y2="54.348"/>
<path style="fill:#BFA380;" d="M45.697,30.348h-30c-1.1,0-2-0.9-2-2v0c0-1.1,0.9-2,2-2h30c1.1,0,2,0.9,2,2v0  C47.697,29.448,46.797,30.348,45.697,30.348z"/>
<path style="fill:#38454F;" d="M31.105,31.042c-0.183-0.311-0.633-0.311-0.816,0l-0.592,1.007v22.3h2v-22.3L31.105,31.042z"/>
<g>
</g>
<g>
</g>
<g>
</g>
<g>
</g>
<g>
</g>
<g>
</g>
<g>
</g>
<g>
</g>
<g>
</g>
<g>
</g>
<g>
</g>
<g>
</g>
<g>
</g>
<g>
</g>
<g>
</g>
</svg>