<svg xmlns="http://www.w3.org/2000/svg" xmlns:xlink="http://www.w3.org/1999/xlink" version="1.1" id="Layer_1" x="0px" y="0px" viewBox="0 0 440.649 440.649" style="enable-background:new 0 0 440.649 440.649;" xml:space="preserve" width="512" height="512">
<g id="_x33_4._Paintbrush_1_">
	<g id="XMLID_82_">
		<g>
			<g>
				<path style="fill:#F2D59F;" d="M427.83,25.655c16.14,16.14-38.89,97.35-122.91,181.37c-19.29,19.29-38.43,37.05-56.67,52.77      l-0.03-0.03l-54.5-54.5l-0.04-0.04c15.73-18.24,33.48-37.37,52.77-56.66C330.48,64.535,411.68,9.505,427.83,25.655z"/>
			</g>
			<g>
				<path style="fill:#FF7124;" d="M248.22,259.765l0.03,0.03c-13.46,11.61-26.42,22.1-38.6,31.27l-1.23-1.62l-45.79-45.79      l-0.05-0.04c9.13-12.11,19.57-25.01,31.1-38.39l0.04,0.04L248.22,259.765z"/>
			</g>
			<g>
				<path style="fill:#F2D59F;" d="M208.42,289.445l1.23,1.62c-43.13,32.52-76.3,48.53-86.06,38.93c-0.2-0.24-0.41-0.48-0.64-0.71      c-0.02-0.03-0.05-0.06-0.08-0.09c-8.26-10.6,7.83-43.33,39.71-85.58l0.05,0.04L208.42,289.445z"/>
			</g>
			<g>
				<path style="fill:#8ECAC1;" d="M128.63,336.865c9.33,15.72,7.78,34.88-2.42,48.72l0.02,0.01c-5.99,8.47-13.81,15.83-23.31,21.47      c-30.59,18.16-68.69,12.62-92.92-11.2c4.93-1.01,9.77-2.86,14.33-5.56c12.97-7.7,20.82-20.71,22.38-34.62      c0.05-0.07,0.04-0.16,0.05-0.21c-0.02-0.26,0.02-0.5,0.07-0.8c-0.02-0.03,0.01-0.05-0.01-0.08l0.04,0.01      c1.46-13.31,8.89-25.8,21.29-33.16c18.14-10.77,40.88-7.04,54.72,7.75c0.03,0.03,0.06,0.06,0.08,0.09      c0.18,0.23,0.38,0.45,0.59,0.66c0.02,0.02,0.03,0.03,0.05,0.05C125.46,332.085,127.15,334.375,128.63,336.865z"/>
			</g>
		</g>
		<g>
			<g>
				<path style="fill:#5E2A41;" d="M131.863,342.735c-5.621,0.001-11.067-1.461-15.285-5.61c-0.039-0.039-0.103-0.102-0.141-0.141      c-0.386-0.385-0.773-0.811-1.131-1.248c-0.111-0.128-0.219-0.259-0.324-0.394c-6.735-8.644-5.577-21.778,3.646-41.333      c7.3-15.479,19.402-34.46,35.969-56.417c9.326-12.369,19.927-25.456,31.507-38.894c16.337-18.945,34.261-38.19,53.274-57.204      c41.077-41.077,82.844-76.672,117.606-100.229c40.909-27.723,65.668-34.93,77.916-22.681      c12.244,12.245,5.035,37.002-22.688,77.911c-23.561,34.768-59.153,76.533-100.222,117.601      c-19.047,19.047-38.296,36.971-57.213,53.274c-13.527,11.668-26.688,22.329-39.114,31.684      c-22.122,16.681-41.964,29.253-57.374,36.354C153.519,337.606,142.389,342.734,131.863,342.735z M130.805,322.677      c3.278,0.33,20.858-0.413,72.825-39.596c12.079-9.095,24.893-19.475,38.089-30.858c18.547-15.985,37.431-33.569,56.13-52.269      c38.12-38.12,71.701-77.168,94.557-109.951c25.425-36.468,29.005-52.98,28.208-57.135c-4.146-0.797-20.659,2.772-57.128,28.197      c-32.781,22.853-71.834,56.439-109.966,94.571c-18.667,18.667-36.253,37.548-52.268,56.12      c-11.295,13.107-21.621,25.852-30.688,37.879C131.253,301.735,130.47,319.365,130.805,322.677z"/>
			</g>
			<g>
				<path style="fill:#5E2A41;" d="M208.42,299.445c-2.559,0-5.119-0.976-7.071-2.929l-45.79-45.79      c-3.905-3.905-3.905-10.237,0-14.143c3.905-3.905,10.237-3.905,14.143,0l45.79,45.79c3.905,3.905,3.905,10.237,0,14.143      C213.539,298.469,210.979,299.445,208.42,299.445z"/>
			</g>
			<g>
				<path style="fill:#5E2A41;" d="M248.22,269.766c-2.559,0-5.119-0.976-7.071-2.929l-54.5-54.5      c-3.905-3.905-3.905-10.237,0-14.143c3.905-3.905,10.237-3.905,14.143,0l54.5,54.5c3.905,3.905,3.905,10.237,0,14.143      C253.339,268.789,250.779,269.766,248.22,269.766z"/>
			</g>
			<g>
				<path style="fill:#5E2A41;" d="M63.756,427.816c-22.182,0-44.145-8.479-60.767-24.819c-2.635-2.59-3.626-6.423-2.579-9.966      c1.047-3.543,3.963-6.22,7.583-6.961c3.921-0.803,7.703-2.273,11.242-4.368c9.865-5.856,16.261-15.747,17.538-27.13      c0.005-0.047,0.011-0.094,0.017-0.142c0.017-0.228,0.039-0.438,0.063-0.628c0.034-0.431,0.096-0.861,0.187-1.286      c2.131-16.681,11.568-31.098,26.007-39.67c21.658-12.859,49.843-8.883,67.058,9.444c0.066,0.069,0.131,0.138,0.195,0.208      c0.281,0.294,0.56,0.604,0.854,0.952c2.276,2.56,4.319,5.353,6.074,8.305c11.008,18.547,9.992,41.687-2.534,59.168      c-0.095,0.151-0.194,0.299-0.297,0.445c-6.988,9.882-15.86,18.056-26.37,24.295C94.268,423.831,78.96,427.815,63.756,427.816z       M29.901,398.625c20.58,12.104,46.65,12.465,67.915-0.159c7.9-4.69,14.59-10.792,19.891-18.142      c0.142-0.229,0.293-0.453,0.454-0.671c8.155-11.066,8.889-25.857,1.87-37.684c-1.121-1.886-2.432-3.673-3.892-5.305      c-0.078-0.087-0.155-0.176-0.23-0.267l-0.079-0.092c-0.141-0.141-0.272-0.281-0.398-0.423      c-10.854-11.462-28.557-13.924-42.176-5.838c-9.273,5.504-15.27,14.854-16.455,25.652c-0.018,0.163-0.04,0.325-0.065,0.486      c-0.008,0.117-0.019,0.234-0.031,0.351c-0.032,0.319-0.077,0.625-0.133,0.921C54.443,374.666,44.761,389.614,29.901,398.625z"/>
			</g>
			<g>
				<path style="fill:#5E2A41;" d="M79.284,389.828c-3.956,0-7.701-2.362-9.275-6.255c-2.069-5.121,0.404-10.949,5.524-13.019      c1.532-0.619,3.021-1.354,4.427-2.186c3.208-1.907,6.019-4.326,8.339-7.181l1.677-2.279c3.272-4.449,9.533-5.4,13.981-2.128      c4.448,3.273,5.401,9.533,2.128,13.982l-1.81,2.46c-0.083,0.112-0.168,0.223-0.256,0.332c-3.847,4.794-8.51,8.837-13.858,12.017      c-2.283,1.351-4.677,2.533-7.133,3.526C81.8,389.593,80.531,389.828,79.284,389.828z"/>
			</g>
			<g>
				<path style="fill:#5E2A41;" d="M76.265,391.088c-3.883,0-7.577-2.275-9.2-6.071c-2.171-5.078,0.186-10.955,5.264-13.126      l3.04-1.3c5.079-2.17,10.955,0.186,13.126,5.264c2.171,5.078-0.185,10.955-5.264,13.126l-3.04,1.3      C78.91,390.828,77.576,391.088,76.265,391.088z"/>
			</g>
		</g>
	</g>
</g>















</svg>